<svg width="200" height="60" viewBox="0 0 200 60" fill="none" xmlns="http://www.w3.org/2000/svg">
<rect y="3" width="200" height="56" rx="28" fill="#458FF6"/>
<path d="M47.2 37.162C45.94 37.162 44.836 36.892 43.888 36.352C42.952 35.812 42.232 35.05 41.728 34.066C41.224 33.07 40.972 31.906 40.972 30.574C40.972 29.254 41.224 28.102 41.728 27.118C42.232 26.122 42.952 25.36 43.888 24.832C44.836 24.292 45.94 24.022 47.2 24.022C48.064 24.022 48.874 24.16 49.63 24.436C50.398 24.7 51.034 25.072 51.538 25.552L50.782 27.244C50.206 26.776 49.63 26.44 49.054 26.236C48.49 26.02 47.884 25.912 47.236 25.912C46 25.912 45.04 26.314 44.356 27.118C43.684 27.922 43.348 29.074 43.348 30.574C43.348 32.086 43.684 33.25 44.356 34.066C45.028 34.87 45.988 35.272 47.236 35.272C47.884 35.272 48.49 35.17 49.054 34.966C49.63 34.75 50.206 34.408 50.782 33.94L51.538 35.632C51.034 36.112 50.398 36.49 49.63 36.766C48.874 37.03 48.064 37.162 47.2 37.162ZM57.4925 37.144C56.5685 37.144 55.7525 36.952 55.0445 36.568C54.3485 36.184 53.8085 35.638 53.4245 34.93C53.0525 34.21 52.8665 33.37 52.8665 32.41C52.8665 31.45 53.0525 30.616 53.4245 29.908C53.8085 29.188 54.3485 28.636 55.0445 28.252C55.7525 27.868 56.5685 27.676 57.4925 27.676C58.4045 27.676 59.2085 27.868 59.9045 28.252C60.6005 28.636 61.1345 29.188 61.5065 29.908C61.8905 30.616 62.0825 31.45 62.0825 32.41C62.0825 33.37 61.8905 34.21 61.5065 34.93C61.1345 35.638 60.6005 36.184 59.9045 36.568C59.2085 36.952 58.4045 37.144 57.4925 37.144ZM57.4745 35.38C58.2425 35.38 58.8245 35.134 59.2205 34.642C59.6285 34.138 59.8325 33.394 59.8325 32.41C59.8325 31.438 59.6285 30.7 59.2205 30.196C58.8125 29.68 58.2365 29.422 57.4925 29.422C56.7365 29.422 56.1545 29.68 55.7465 30.196C55.3385 30.7 55.1345 31.438 55.1345 32.41C55.1345 33.394 55.3325 34.138 55.7285 34.642C56.1365 35.134 56.7185 35.38 57.4745 35.38ZM69.2248 27.676C71.3968 27.676 72.4828 28.924 72.4828 31.42V37H70.2328V31.528C70.2328 30.808 70.0948 30.286 69.8188 29.962C69.5428 29.626 69.1168 29.458 68.5408 29.458C67.8568 29.458 67.3048 29.68 66.8848 30.124C66.4648 30.556 66.2548 31.132 66.2548 31.852V37H64.0228V30.484C64.0228 29.524 63.9748 28.666 63.8788 27.91H65.9848L66.1468 29.404C66.4588 28.852 66.8788 28.426 67.4068 28.126C67.9468 27.826 68.5528 27.676 69.2248 27.676ZM78.1985 37.144C76.5545 37.144 75.2465 36.76 74.2745 35.992L74.9045 34.408C75.8765 35.128 76.9865 35.488 78.2345 35.488C78.7745 35.488 79.1885 35.398 79.4765 35.218C79.7765 35.038 79.9265 34.786 79.9265 34.462C79.9265 34.186 79.8245 33.97 79.6205 33.814C79.4165 33.646 79.0685 33.502 78.5765 33.382L77.0645 33.04C75.4085 32.68 74.5805 31.834 74.5805 30.502C74.5805 29.95 74.7365 29.464 75.0485 29.044C75.3605 28.612 75.7985 28.276 76.3625 28.036C76.9265 27.796 77.5805 27.676 78.3245 27.676C78.9725 27.676 79.5965 27.778 80.1965 27.982C80.7965 28.174 81.3245 28.456 81.7805 28.828L81.1145 30.358C80.2025 29.686 79.2665 29.35 78.3065 29.35C77.7905 29.35 77.3885 29.446 77.1005 29.638C76.8125 29.83 76.6685 30.094 76.6685 30.43C76.6685 30.694 76.7525 30.904 76.9205 31.06C77.1005 31.216 77.4005 31.348 77.8205 31.456L79.3685 31.798C80.2685 32.002 80.9225 32.32 81.3305 32.752C81.7505 33.172 81.9605 33.724 81.9605 34.408C81.9605 35.248 81.6245 35.914 80.9525 36.406C80.2805 36.898 79.3625 37.144 78.1985 37.144ZM92.1661 27.91V37H89.9701V35.596C89.6821 36.1 89.2981 36.484 88.8181 36.748C88.3381 37.012 87.7861 37.144 87.1621 37.144C84.9421 37.144 83.8321 35.896 83.8321 33.4V27.91H86.0641V33.418C86.0641 34.078 86.1961 34.564 86.4601 34.876C86.7361 35.188 87.1561 35.344 87.7201 35.344C88.3801 35.344 88.9081 35.128 89.3041 34.696C89.7001 34.264 89.8981 33.688 89.8981 32.968V27.91H92.1661ZM94.6088 23.752H96.8408V37H94.6088V23.752ZM102.164 29.602V33.67C102.164 34.738 102.662 35.272 103.658 35.272C103.934 35.272 104.234 35.224 104.558 35.128V36.91C104.162 37.054 103.682 37.126 103.118 37.126C102.086 37.126 101.294 36.838 100.742 36.262C100.19 35.686 99.9141 34.858 99.9141 33.778V29.602H98.1681V27.91H99.9141V25.696L102.164 24.94V27.91H104.576V29.602H102.164ZM113.924 29.602V33.67C113.924 34.738 114.422 35.272 115.418 35.272C115.694 35.272 115.994 35.224 116.318 35.128V36.91C115.922 37.054 115.442 37.126 114.878 37.126C113.846 37.126 113.054 36.838 112.502 36.262C111.95 35.686 111.674 34.858 111.674 33.778V29.602H109.928V27.91H111.674V25.696L113.924 24.94V27.91H116.336V29.602H113.924ZM122.004 37.144C121.08 37.144 120.264 36.952 119.556 36.568C118.86 36.184 118.32 35.638 117.936 34.93C117.564 34.21 117.378 33.37 117.378 32.41C117.378 31.45 117.564 30.616 117.936 29.908C118.32 29.188 118.86 28.636 119.556 28.252C120.264 27.868 121.08 27.676 122.004 27.676C122.916 27.676 123.72 27.868 124.416 28.252C125.112 28.636 125.646 29.188 126.018 29.908C126.402 30.616 126.594 31.45 126.594 32.41C126.594 33.37 126.402 34.21 126.018 34.93C125.646 35.638 125.112 36.184 124.416 36.568C123.72 36.952 122.916 37.144 122.004 37.144ZM121.986 35.38C122.754 35.38 123.336 35.134 123.732 34.642C124.14 34.138 124.344 33.394 124.344 32.41C124.344 31.438 124.14 30.7 123.732 30.196C123.324 29.68 122.748 29.422 122.004 29.422C121.248 29.422 120.666 29.68 120.258 30.196C119.85 30.7 119.646 31.438 119.646 32.41C119.646 33.394 119.844 34.138 120.24 34.642C120.648 35.134 121.23 35.38 121.986 35.38ZM137.229 23.752V37H135.015V35.542C134.739 36.046 134.343 36.442 133.827 36.73C133.311 37.006 132.723 37.144 132.063 37.144C131.283 37.144 130.587 36.946 129.975 36.55C129.363 36.154 128.883 35.596 128.535 34.876C128.199 34.144 128.031 33.31 128.031 32.374C128.031 31.438 128.199 30.616 128.535 29.908C128.871 29.2 129.345 28.654 129.957 28.27C130.569 27.874 131.271 27.676 132.063 27.676C132.711 27.676 133.287 27.814 133.791 28.09C134.307 28.354 134.703 28.732 134.979 29.224V23.752H137.229ZM132.657 35.38C133.401 35.38 133.977 35.122 134.385 34.606C134.805 34.09 135.015 33.358 135.015 32.41C135.015 31.462 134.811 30.73 134.403 30.214C133.995 29.698 133.419 29.44 132.675 29.44C131.919 29.44 131.331 29.698 130.911 30.214C130.503 30.718 130.299 31.438 130.299 32.374C130.299 33.322 130.503 34.06 130.911 34.588C131.331 35.116 131.913 35.38 132.657 35.38ZM148.373 27.91V37H146.159V35.542C145.883 36.046 145.487 36.442 144.971 36.73C144.455 37.006 143.867 37.144 143.207 37.144C142.415 37.144 141.713 36.952 141.101 36.568C140.489 36.184 140.015 35.638 139.679 34.93C139.343 34.222 139.175 33.4 139.175 32.464C139.175 31.528 139.343 30.7 139.679 29.98C140.027 29.248 140.507 28.684 141.119 28.288C141.731 27.88 142.427 27.676 143.207 27.676C143.867 27.676 144.455 27.82 144.971 28.108C145.487 28.384 145.883 28.774 146.159 29.278V27.91H148.373ZM143.819 35.38C144.563 35.38 145.139 35.122 145.547 34.606C145.955 34.09 146.159 33.364 146.159 32.428C146.159 31.468 145.955 30.73 145.547 30.214C145.139 29.698 144.557 29.44 143.801 29.44C143.057 29.44 142.475 29.71 142.055 30.25C141.647 30.778 141.443 31.516 141.443 32.464C141.443 33.4 141.647 34.12 142.055 34.624C142.475 35.128 143.063 35.38 143.819 35.38ZM159.428 27.91L155.198 37.612C154.718 38.74 154.106 39.562 153.362 40.078C152.618 40.594 151.7 40.936 150.608 41.104L150.104 39.376C150.956 39.184 151.592 38.938 152.012 38.638C152.444 38.35 152.792 37.918 153.056 37.342L153.344 36.676L149.564 27.91H151.922L154.532 34.444L157.196 27.91H159.428Z" fill="white"/>
</svg>
