<svg width="35" height="82" viewBox="0 0 35 82" fill="none" xmlns="http://www.w3.org/2000/svg">
<path d="M0 0H35V82H0V0Z" fill="white"/>
<line x1="3" y1="40.5" x2="32" y2="40.5" stroke="#949494"/>
<path d="M23 62.5C23 62.7765 22.956 63 22.4491 63H12.5509C12.0449 63 12 62.7765 12 62.5C12 62.2235 12.0449 62 12.5509 62H22.45C22.956 62 23 62.2235 23 62.5Z" fill="#949494"/>
<path d="M22.3125 20.8125H18.1875V16.6875C18.1875 16.5052 18.1151 16.3303 17.9861 16.2014C17.8572 16.0724 17.6823 16 17.5 16C17.3177 16 17.1428 16.0724 17.0139 16.2014C16.8849 16.3303 16.8125 16.5052 16.8125 16.6875V20.8125H12.6875C12.5052 20.8125 12.3303 20.8849 12.2014 21.0139C12.0724 21.1428 12 21.3177 12 21.5C12 21.6823 12.0724 21.8572 12.2014 21.9861C12.3303 22.1151 12.5052 22.1875 12.6875 22.1875H16.8125V26.3125C16.8125 26.4948 16.8849 26.6697 17.0139 26.7986C17.1428 26.9276 17.3177 27 17.5 27C17.6823 27 17.8572 26.9276 17.9861 26.7986C18.1151 26.6697 18.1875 26.4948 18.1875 26.3125V22.1875H22.3125C22.4948 22.1875 22.6697 22.1151 22.7986 21.9861C22.9276 21.8572 23 21.6823 23 21.5C23 21.3177 22.9276 21.1428 22.7986 21.0139C22.6697 20.8849 22.4948 20.8125 22.3125 20.8125Z" fill="#949494"/>
</svg>
