<svg width="215" height="40" viewBox="0 0 215 40" fill="none" xmlns="http://www.w3.org/2000/svg">
<mask id="path-1-inside-1_10_581" fill="white">
<path d="M0 0.999999C0 0.447714 0.447715 0 1 0H214C214.552 0 215 0.447715 215 1V39C215 39.5523 214.552 40 214 40H1.00001C0.447721 40 0 39.5523 0 39V0.999999Z"/>
</mask>
<path d="M0 0.999999C0 0.447714 0.447715 0 1 0H214C214.552 0 215 0.447715 215 1V39C215 39.5523 214.552 40 214 40H1.00001C0.447721 40 0 39.5523 0 39V0.999999Z" fill="#D400B3" stroke="#D400B3" stroke-width="4" mask="url(#path-1-inside-1_10_581)"/>
<path d="M44.3578 24.216C43.6138 24.216 42.9238 24.204 42.2878 24.18C41.6518 24.156 40.7818 24.102 39.6778 24.018V11.616H45.8698C46.7458 11.616 47.5318 11.742 48.2278 11.994C48.9358 12.234 49.4878 12.582 49.8838 13.038C50.2798 13.494 50.4778 14.022 50.4778 14.622C50.4778 15.366 50.3158 15.954 49.9918 16.386C49.6678 16.806 49.1758 17.1 48.5158 17.268C50.1958 17.532 51.0358 18.522 51.0358 20.238C51.0358 21.426 50.4898 22.386 49.3978 23.118C48.3178 23.85 46.6378 24.216 44.3578 24.216ZM45.1138 16.512C45.5818 16.512 45.9658 16.398 46.2658 16.17C46.5778 15.942 46.7338 15.648 46.7338 15.288C46.7338 14.436 46.2058 14.01 45.1498 14.01H43.6918V16.512H45.1138ZM45.0418 21.39C45.7018 21.39 46.2058 21.27 46.5538 21.03C46.9138 20.778 47.0938 20.43 47.0938 19.986C47.0938 19.506 46.9318 19.14 46.6078 18.888C46.2838 18.624 45.8218 18.492 45.2218 18.492H43.6738V21.336C44.2138 21.372 44.6698 21.39 45.0418 21.39ZM58.1685 24.144C57.2205 24.144 56.3745 23.976 55.6305 23.64C54.8985 23.304 54.3285 22.83 53.9205 22.218C53.5125 21.606 53.3085 20.91 53.3085 20.13V14.982H57.0165V20.076C57.0165 20.472 57.1245 20.784 57.3405 21.012C57.5685 21.228 57.8505 21.336 58.1865 21.336C58.5105 21.336 58.7745 21.228 58.9785 21.012C59.1945 20.784 59.3025 20.472 59.3025 20.076V14.982H62.9385V20.13C62.9385 20.922 62.7345 21.624 62.3265 22.236C61.9305 22.836 61.3725 23.304 60.6525 23.64C59.9325 23.976 59.1045 24.144 58.1685 24.144ZM70.4712 28.122C69.8112 28.122 69.1812 28.056 68.5812 27.924L68.8692 25.26C69.3372 25.332 69.7692 25.368 70.1652 25.368C70.8732 25.368 71.4132 25.152 71.7852 24.72C72.1572 24.3 72.3492 23.502 72.3612 22.326C71.7372 23.526 70.7352 24.126 69.3552 24.126C68.1912 24.126 67.2792 23.718 66.6192 22.902C65.9712 22.074 65.6472 20.934 65.6472 19.482V14.982H69.4272V20.04C69.4272 20.448 69.5412 20.79 69.7692 21.066C69.9972 21.33 70.3092 21.462 70.7052 21.462C71.1132 21.462 71.4432 21.288 71.6952 20.94C71.9592 20.592 72.0912 20.136 72.0912 19.572V14.982H75.8892V21.714C75.8892 23.802 75.4212 25.392 74.4852 26.484C73.5492 27.576 72.2112 28.122 70.4712 28.122ZM85.2601 14.352H82.6861V11.616H92.0281V14.352H89.4541V24H85.2601V14.352ZM98.0776 24.144C97.0816 24.144 96.1936 23.946 95.4136 23.55C94.6456 23.142 94.0456 22.59 93.6136 21.894C93.1816 21.186 92.9656 20.388 92.9656 19.5C92.9656 18.588 93.1876 17.778 93.6316 17.07C94.0756 16.362 94.6756 15.816 95.4316 15.432C96.1876 15.048 97.0276 14.856 97.9516 14.856C98.8396 14.856 99.5956 15.054 100.22 15.45C100.856 15.834 101.33 16.362 101.642 17.034C101.954 17.694 102.11 18.438 102.11 19.266C102.11 19.482 102.098 19.638 102.074 19.734L96.6736 20.436C96.8176 20.856 97.0516 21.162 97.3756 21.354C97.6996 21.534 98.1256 21.624 98.6536 21.624C99.4696 21.624 100.352 21.414 101.3 20.994L101.75 23.406C100.634 23.898 99.4096 24.144 98.0776 24.144ZM99.3196 18.168C99.1276 17.412 98.6716 17.034 97.9516 17.034C97.5196 17.034 97.1776 17.196 96.9256 17.52C96.6736 17.844 96.5416 18.264 96.5296 18.78L99.3196 18.168ZM104.418 15.108H108.036V16.944C108.444 16.236 108.906 15.714 109.422 15.378C109.95 15.03 110.574 14.856 111.294 14.856C112.002 14.856 112.614 15.036 113.13 15.396C113.658 15.744 114.054 16.218 114.318 16.818C115.086 15.51 116.202 14.856 117.666 14.856C118.362 14.856 118.968 15.042 119.484 15.414C120.012 15.786 120.42 16.326 120.708 17.034C120.996 17.73 121.14 18.552 121.14 19.5V24H117.342V19.5C117.342 18.888 117.234 18.426 117.018 18.114C116.814 17.802 116.526 17.646 116.154 17.646C115.746 17.646 115.392 17.82 115.092 18.168C114.804 18.516 114.66 18.936 114.66 19.428V24H110.898V19.5C110.898 18.888 110.79 18.426 110.574 18.114C110.37 17.802 110.076 17.646 109.692 17.646C109.284 17.646 108.936 17.82 108.648 18.168C108.36 18.516 108.216 18.936 108.216 19.428V24H104.418V15.108ZM123.892 15.108H127.69V16.674C128.266 15.462 129.244 14.856 130.624 14.856C131.428 14.856 132.166 15.06 132.838 15.468C133.522 15.864 134.056 16.416 134.44 17.124C134.836 17.832 135.034 18.624 135.034 19.5C135.034 20.376 134.83 21.168 134.422 21.876C134.026 22.584 133.486 23.142 132.802 23.55C132.13 23.946 131.41 24.144 130.642 24.144C129.274 24.144 128.29 23.538 127.69 22.326V26.34L123.892 27.06V15.108ZM129.49 21.3C129.982 21.3 130.402 21.12 130.75 20.76C131.098 20.4 131.272 19.98 131.272 19.5C131.272 18.996 131.092 18.57 130.732 18.222C130.384 17.874 129.97 17.7 129.49 17.7C128.998 17.7 128.578 17.874 128.23 18.222C127.882 18.558 127.708 18.96 127.708 19.428V19.5C127.708 20.004 127.882 20.43 128.23 20.778C128.59 21.126 129.01 21.3 129.49 21.3ZM140.576 24.144C139.556 24.144 138.764 23.826 138.2 23.19C137.648 22.542 137.372 21.66 137.372 20.544V12.138L141.17 11.58V20.274C141.17 20.61 141.248 20.856 141.404 21.012C141.572 21.156 141.86 21.228 142.268 21.228C142.568 21.228 142.862 21.156 143.15 21.012L143.276 23.532C142.472 23.94 141.572 24.144 140.576 24.144ZM149.189 24.144C148.409 24.144 147.677 23.94 146.993 23.532C146.321 23.112 145.781 22.548 145.373 21.84C144.965 21.12 144.761 20.322 144.761 19.446C144.761 18.582 144.965 17.802 145.373 17.106C145.781 16.398 146.327 15.846 147.011 15.45C147.695 15.054 148.421 14.856 149.189 14.856C149.813 14.856 150.389 15.03 150.917 15.378C151.457 15.726 151.865 16.248 152.141 16.944V14.856H155.921V24H152.141V22.326C151.541 23.538 150.557 24.144 149.189 24.144ZM150.359 21.3C150.839 21.3 151.247 21.132 151.583 20.796C151.931 20.448 152.117 20.04 152.141 19.572V19.428C152.117 18.948 151.925 18.54 151.565 18.204C151.217 17.868 150.815 17.7 150.359 17.7C149.855 17.7 149.423 17.88 149.063 18.24C148.715 18.588 148.541 19.008 148.541 19.5C148.541 20.004 148.721 20.43 149.081 20.778C149.441 21.126 149.867 21.3 150.359 21.3ZM162.686 24.144C161.63 24.144 160.808 23.844 160.22 23.244C159.632 22.632 159.338 21.792 159.338 20.724V17.214H158.186V14.982H159.608L161.282 11.58H163.1V14.982H165.188V17.214H163.1V20.274C163.1 20.574 163.196 20.808 163.388 20.976C163.58 21.144 163.85 21.228 164.198 21.228C164.522 21.228 164.816 21.156 165.08 21.012L165.224 23.532C164.924 23.712 164.534 23.862 164.054 23.982C163.586 24.09 163.13 24.144 162.686 24.144ZM172.052 24.144C171.056 24.144 170.168 23.946 169.388 23.55C168.62 23.142 168.02 22.59 167.588 21.894C167.156 21.186 166.94 20.388 166.94 19.5C166.94 18.588 167.162 17.778 167.606 17.07C168.05 16.362 168.65 15.816 169.406 15.432C170.162 15.048 171.002 14.856 171.926 14.856C172.814 14.856 173.57 15.054 174.194 15.45C174.83 15.834 175.304 16.362 175.616 17.034C175.928 17.694 176.084 18.438 176.084 19.266C176.084 19.482 176.072 19.638 176.048 19.734L170.648 20.436C170.792 20.856 171.026 21.162 171.35 21.354C171.674 21.534 172.1 21.624 172.628 21.624C173.444 21.624 174.326 21.414 175.274 20.994L175.724 23.406C174.608 23.898 173.384 24.144 172.052 24.144ZM173.294 18.168C173.102 17.412 172.646 17.034 171.926 17.034C171.494 17.034 171.152 17.196 170.9 17.52C170.648 17.844 170.516 18.264 170.504 18.78L173.294 18.168Z" fill="white"/>
</svg>
